<?xml version="1.0" standalone="no"?>
<!DOCTYPE svg PUBLIC "-//W3C//DTD SVG 20010904//EN"
 "http://www.w3.org/TR/2001/REC-SVG-20010904/DTD/svg10.dtd">
<svg version="1.0" xmlns="http://www.w3.org/2000/svg"
 width="440.000000pt" height="440.000000pt" viewBox="0 0 440.000000 440.000000"
 preserveAspectRatio="xMidYMid meet">
<metadata>
Created by potrace 1.11, written by Peter Selinger 2001-2013
</metadata>
<g transform="translate(0.000000,440.000000) scale(0.100000,-0.100000)"
fill="#000000" stroke="none">
<path d="M1842 3838 c-24 -238 -46 -443 -49 -455 -4 -19 -13 -22 -91 -27 -423
-29 -629 -68 -867 -163 -97 -39 -307 -143 -327 -161 -4 -4 12 -68 36 -142 48
-148 44 -144 124 -127 25 5 31 4 26 -6 -5 -6 0 -5 11 3 14 12 19 12 23 2 3
-10 8 -8 19 5 8 10 12 13 8 6 -6 -13 12 -52 30 -65 6 -5 5 -8 -3 -8 -7 0 -17
10 -23 23 -10 23 -49 35 -49 16 0 -6 5 -7 10 -4 7 4 9 -3 6 -19 -3 -15 -1 -24
5 -21 5 4 7 10 4 15 -3 5 -1 11 5 15 13 8 13 -21 -1 -47 -8 -15 -8 -19 0 -14
12 8 58 -61 53 -81 -6 -25 65 -41 81 -19 5 8 10 7 16 -3 6 -9 11 -10 15 -2 4
6 12 11 18 11 6 0 5 -7 -3 -17 -12 -16 -12 -17 2 -6 9 7 20 9 25 5 4 -4 3 0
-4 9 -9 12 -9 18 1 29 6 7 7 10 2 7 -6 -3 -17 -1 -25 5 -12 8 -12 9 2 4 11 -3
21 2 27 12 5 9 13 13 18 8 4 -5 2 -11 -5 -13 -6 -3 -9 -9 -6 -14 8 -14 35 11
27 25 -3 6 -3 8 2 4 4 -4 14 0 22 10 13 16 13 15 4 -3 -6 -14 -5 -28 5 -45 7
-14 13 -19 14 -11 0 11 3 11 15 1 13 -11 14 -10 10 2 -5 11 3 14 32 14 21 -1
44 -5 52 -10 10 -6 12 -5 7 2 -4 6 2 17 14 24 21 14 29 34 8 22 -7 -4 -10 -4
-6 1 4 4 2 15 -5 23 -11 13 -9 14 11 1 12 -8 22 -19 22 -24 0 -6 12 -10 28 -9
15 0 31 -4 35 -10 6 -7 7 -6 4 4 -2 8 -9 16 -15 16 -7 1 -15 3 -19 4 -5 1 -11
2 -15 1 -4 0 -5 6 -1 15 5 14 7 14 14 1 6 -9 17 -13 29 -10 12 3 20 0 20 -6 0
-7 5 -9 11 -5 8 4 3 12 -12 21 -13 8 -16 12 -6 9 11 -3 20 0 23 9 4 8 10 15
16 15 5 0 6 -6 1 -12 -4 -7 -8 -26 -9 -43 -1 -16 1 -24 3 -17 3 6 9 10 14 7 5
-4 6 1 3 9 -6 15 11 17 34 2 9 -5 22 0 39 15 26 25 29 25 53 -1 8 -8 12 -11 8
-6 -13 16 -9 22 13 23 24 2 35 10 26 19 -3 3 -12 2 -19 -2 -19 -12 -38 -14
-38 -3 0 5 -5 9 -11 9 -5 0 -7 -6 -3 -12 4 -7 4 -10 -1 -6 -4 4 -15 2 -23 -5
-13 -10 -14 -9 -8 1 4 7 3 19 -4 27 -8 9 -8 15 0 20 6 4 9 1 8 -6 -2 -6 3 -14
11 -17 9 -3 11 0 6 8 -4 7 4 6 23 -4 28 -15 42 -13 42 6 0 5 -6 6 -12 2 -9 -5
-9 -2 1 9 16 20 22 22 18 6 -1 -6 6 -13 16 -14 9 -2 17 0 17 4 0 4 10 7 23 8
21 2 21 1 -3 -12 -14 -7 -26 -18 -26 -24 -1 -6 -2 -12 -4 -13 -5 -8 -7 -39 -2
-33 4 4 8 11 8 16 1 5 2 12 3 15 0 4 7 1 15 -5 15 -13 32 1 21 18 -3 5 4 16
15 24 11 7 17 17 13 20 -3 4 -1 7 5 7 7 0 12 -4 12 -10 0 -5 3 -9 8 -9 19 3
23 -2 12 -16 -9 -11 -16 -12 -25 -5 -10 8 -15 8 -21 -1 -4 -8 -3 -9 4 -5 7 4
12 1 12 -9 0 -10 -5 -13 -12 -9 -7 4 -8 3 -4 -5 4 -6 -4 -23 -18 -39 -13 -15
-93 -108 -177 -207 -208 -246 -362 -396 -711 -694 -164 -139 -298 -259 -298
-265 1 -16 57 -267 62 -271 7 -8 154 -9 166 -1 7 4 16 5 19 2 4 -3 1 -6 -6 -6
-7 0 -10 -4 -6 -9 3 -5 0 -13 -6 -17 -7 -4 -9 -3 -6 4 5 6 -1 8 -14 5 -20 -5
-20 -6 3 -17 13 -7 22 -20 22 -29 -2 -17 7 -22 19 -10 4 3 1 13 -7 22 -12 14
-12 18 1 30 13 12 14 11 8 -9 -5 -15 -4 -20 3 -16 7 4 9 -1 7 -14 -2 -11 2
-20 8 -20 8 0 8 -3 -1 -9 -8 -4 -13 -11 -13 -15 3 -24 0 -28 -14 -16 -10 9
-15 9 -15 1 0 -6 5 -11 10 -11 6 0 10 -6 10 -13 0 -20 37 -51 45 -38 6 10 -1
15 -17 12 -8 -1 -10 5 -12 32 -1 6 9 13 21 13 18 1 20 -2 13 -16 -6 -11 -5
-21 2 -28 8 -8 7 -16 -3 -28 -8 -10 -9 -15 -2 -11 6 4 14 3 18 -3 3 -5 11 -10
18 -10 6 0 2 7 -9 16 -16 13 -16 15 -2 10 10 -3 20 0 24 6 4 6 3 8 -4 4 -14
-9 -23 7 -12 23 6 11 11 9 20 -8 9 -18 14 -20 26 -11 7 7 11 17 7 24 -3 6 -3
8 2 4 4 -4 15 2 25 14 13 17 17 18 17 5 0 -9 -3 -15 -6 -13 -3 2 -14 -7 -24
-20 -14 -19 -15 -24 -4 -24 8 0 19 -10 26 -23 9 -17 10 -17 5 -2 -13 40 -10
50 14 49 18 -1 21 3 17 20 -6 21 -6 21 7 1 14 -22 25 -25 46 -11 8 5 18 4 25
-3 9 -9 8 -11 -3 -8 -8 2 -12 2 -7 0 4 -3 4 -10 1 -16 -5 -9 -4 -9 6 0 7 6 20
9 29 5 14 -5 14 -3 -1 12 -10 9 -18 25 -17 34 0 12 3 11 9 -5 5 -13 12 -23 15
-23 4 0 4 4 1 8 -2 4 0 14 5 22 9 13 10 13 8 0 -3 -26 1 -40 10 -40 4 0 7 12
5 26 -1 14 0 23 3 20 3 -3 13 3 22 12 9 10 12 12 8 5 -5 -6 -5 -18 -1 -24 4
-7 3 -9 -4 -5 -18 11 -22 -10 -7 -30 15 -18 15 -18 8 1 -6 18 -5 19 12 5 17
-13 18 -13 10 0 -15 24 -14 40 0 40 8 0 12 8 10 18 -2 12 3 18 17 18 17 0 18
-2 3 -12 -9 -7 -12 -15 -7 -18 5 -3 17 3 27 14 16 18 16 20 1 26 -9 3 -13 10
-10 16 3 5 12 1 19 -9 18 -24 29 -10 15 19 -11 22 -11 22 9 -2 23 -28 27 -45
9 -34 -7 4 -8 3 -4 -4 5 -8 2 -10 -8 -6 -9 3 -16 1 -16 -6 0 -6 4 -9 9 -5 6 3
13 -1 18 -9 7 -12 10 -12 21 0 8 9 9 14 2 14 -6 0 -9 4 -5 10 3 5 12 7 20 3 8
-3 15 0 15 7 0 7 7 10 16 6 8 -3 12 -2 9 4 -4 6 4 14 17 19 13 6 16 10 8 11
-13 0 -13 1 0 10 8 5 11 10 5 10 -15 0 -37 -16 -37 -26 0 -5 -4 -8 -9 -6 -5 1
-9 -4 -9 -10 0 -9 -4 -8 -11 2 -9 13 -10 12 -5 -3 8 -24 -10 -12 -26 16 -10
19 -9 20 3 10 12 -10 17 -8 26 7 14 22 90 24 85 2 -1 -8 2 -11 8 -7 6 3 8 11
5 16 -4 5 -2 9 4 9 5 0 9 9 8 19 0 11 -5 17 -9 15 -5 -3 -5 -10 -2 -16 5 -7 2
-8 -6 -3 -9 6 -11 4 -5 -6 8 -12 6 -12 -8 0 -18 14 -13 36 5 25 7 -5 9 -1 5 9
-4 11 -2 14 8 11 9 -4 19 4 27 21 10 21 13 23 20 10 11 -18 1 -38 -14 -29 -7
5 -8 2 -3 -6 5 -8 4 -11 -3 -7 -6 5 -8 -1 -4 -15 5 -19 7 -20 10 -5 4 20 18
22 26 5 3 -7 3 -2 0 11 -4 16 -2 21 5 17 7 -5 8 -1 4 11 -6 16 -5 17 13 3 10
-8 16 -10 12 -6 -10 12 50 69 63 60 6 -3 13 3 16 15 3 12 10 21 15 21 5 0 7 9
3 19 -3 11 -1 23 6 26 8 6 8 9 0 15 -7 4 -2 11 13 18 20 9 28 8 40 -3 12 -13
15 -12 20 1 3 8 2 12 -4 9 -6 -3 -10 1 -10 10 0 10 -5 13 -12 9 -7 -4 -10 -4
-6 1 4 4 2 15 -4 24 -10 13 -10 14 2 3 18 -16 33 -16 24 1 -6 9 -5 9 8 0 8 -7
19 -9 23 -5 5 4 5 1 1 -6 -4 -7 -12 -10 -17 -7 -5 4 -9 1 -9 -4 0 -15 13 -14
29 2 11 10 14 10 18 0 6 -18 20 -16 20 2 0 8 -5 11 -10 8 -7 -4 -8 1 -3 12 5
15 4 16 -9 5 -11 -9 -15 -9 -15 -1 0 7 -4 10 -9 6 -5 -3 -12 -2 -14 2 -3 5 10
9 29 10 19 1 34 -2 34 -8 0 -5 5 -9 11 -9 5 0 8 4 4 9 -3 5 3 12 12 14 12 3
10 5 -7 6 -47 2 -59 4 -54 12 2 5 12 5 21 2 12 -5 15 -2 10 10 -7 18 8 33 18
18 3 -6 11 -8 18 -6 7 3 19 0 27 -5 12 -8 13 -11 1 -19 -7 -5 -9 -10 -4 -12 5
-2 -10 -160 -34 -359 l-44 -355 28 -212 27 -213 81 -1 c108 -1 146 -9 110 -23
-9 -3 -14 -2 -11 2 2 4 -3 8 -13 8 -10 0 -18 -5 -18 -12 0 -6 7 -11 16 -10 15
1 17 -3 20 -39 0 -8 6 -15 12 -15 5 0 7 4 4 10 -11 18 -14 50 -4 50 9 0 13
-14 10 -39 -2 -8 2 -10 11 -5 10 6 9 3 -1 -10 -13 -15 -12 -17 13 -12 23 4 26
2 16 -9 -6 -8 -19 -11 -27 -8 -12 5 -14 3 -8 -7 5 -9 4 -11 -3 -6 -7 4 -20 2
-29 -4 -15 -9 -14 -10 7 -4 20 5 23 4 13 -7 -7 -7 -13 -20 -12 -29 0 -9 4 -6
9 8 9 21 20 26 49 23 8 -2 10 2 5 10 -5 8 -3 10 6 4 10 -6 9 -11 -4 -21 -11
-8 -14 -14 -6 -19 6 -4 8 -15 5 -26 -7 -21 9 -26 21 -7 5 7 3 8 -6 3 -9 -6
-11 -4 -5 5 6 10 12 8 27 -9 10 -13 18 -19 18 -14 0 5 -5 14 -12 21 -12 12 -8
14 19 11 4 0 10 8 14 18 7 17 8 17 8 -1 1 -19 1 -19 23 0 13 11 18 13 11 3 -9
-10 -9 -19 -2 -26 6 -6 5 -10 -5 -10 -8 0 -12 5 -9 10 3 6 1 7 -5 3 -17 -10
-15 -29 2 -23 8 3 17 3 21 -1 3 -4 14 -7 23 -7 9 0 16 -6 14 -13 -1 -8 2 -11
9 -6 9 5 3 15 -17 32 -19 15 -25 26 -16 29 6 2 9 10 5 16 -3 7 -3 9 2 5 4 -4
15 -2 24 5 14 10 14 10 3 -4 -10 -14 -10 -18 3 -23 8 -3 15 0 15 7 0 8 4 6 10
-3 9 -14 15 -7 11 14 -1 5 5 4 13 -3 9 -7 24 -10 33 -7 15 5 15 4 -1 -9 -14
-10 -22 -12 -27 -4 -4 8 -9 8 -13 1 -6 -11 -37 -9 -55 3 -5 3 -12 1 -16 -5 -3
-5 3 -10 14 -10 10 0 21 -6 24 -12 4 -11 7 -11 18 0 20 18 33 15 18 -5 -12
-16 -12 -17 2 -6 12 10 18 10 29 0 12 -10 12 -9 1 5 -13 18 -7 23 21 19 4 0 5
8 3 19 -2 11 3 24 12 28 14 8 14 12 -2 35 -9 15 -21 25 -25 22 -5 -3 -11 -1
-14 4 -5 8 15 8 34 1 3 -1 9 -2 13 -1 5 1 6 -3 3 -8 -4 -5 -1 -13 5 -16 20
-13 20 3 -1 41 -19 32 -19 36 -4 24 16 -13 17 -13 11 2 -4 12 -2 15 9 11 11
-4 12 -8 3 -20 -10 -11 -8 -18 6 -31 18 -16 18 -16 6 0 -11 15 -11 21 0 34 10
13 10 17 -2 25 -8 5 -22 7 -32 5 -9 -2 -14 0 -11 6 3 5 15 8 25 5 22 -6 25 3
7 21 -9 9 -9 12 -1 12 7 0 15 -9 18 -20 3 -11 11 -20 17 -20 6 0 6 6 -2 15 -7
8 -9 15 -4 15 5 0 0 7 -10 15 -11 8 -14 15 -7 15 7 0 9 5 5 12 -4 7 -3 8 4 4
7 -4 12 -1 12 9 0 9 -5 13 -11 9 -14 -8 6 31 33 65 19 24 18 25 -5 45 -12 12
-17 17 -10 12 8 -5 15 -3 19 8 9 24 23 19 20 -8 -2 -12 3 -32 11 -42 13 -18
14 -17 9 8 -2 15 -7 32 -11 38 -3 5 5 14 19 20 31 11 35 20 6 13 -12 -3 -20 0
-20 7 0 9 -8 7 -26 -5 -14 -9 -28 -14 -32 -11 -3 3 -1 6 5 6 16 0 63 51 57 62
-4 6 -10 5 -15 -3 -6 -10 -9 -10 -9 -2 0 6 5 15 10 18 8 5 7 12 -2 23 -12 15
-11 16 5 3 19 -15 22 -9 7 19 -7 13 -6 21 5 30 8 7 15 9 15 5 0 -5 8 -1 18 8
10 10 21 15 23 12 3 -2 5 5 5 16 0 18 -2 19 -12 4 -7 -9 -16 -17 -21 -18 -4
-1 -7 -6 -5 -10 1 -5 -2 -5 -8 -2 -6 4 -9 14 -6 22 4 11 2 13 -9 9 -22 -8 -18
2 6 15 15 7 19 8 15 0 -4 -7 -1 -9 8 -5 19 7 28 31 10 31 -7 0 -11 -3 -9 -7 2
-3 -5 -6 -16 -6 -18 0 -18 2 -5 12 9 6 12 14 8 19 -4 4 4 4 18 0 25 -7 25 -7
5 12 -20 20 -20 20 -32 -1 -11 -20 -11 -19 -10 6 1 14 5 24 9 22 4 -2 9 0 13
6 3 5 1 10 -6 10 -9 0 -9 3 0 14 9 11 9 16 -1 22 -7 5 -16 9 -20 9 -3 0 -10 5
-15 10 -4 6 -4 7 1 3 15 -12 35 11 30 36 -2 12 3 31 12 42 14 18 14 18 4 -5
-15 -30 1 -49 21 -25 9 12 10 15 2 10 -8 -4 -13 -1 -13 9 0 9 4 14 9 10 5 -3
13 -1 16 5 4 6 3 9 -2 8 -4 -2 -19 5 -33 15 -18 13 -20 17 -8 17 9 0 20 -4 23
-10 3 -5 10 -10 15 -10 6 0 2 9 -7 19 -9 11 -22 17 -29 14 -8 -3 -14 0 -14 7
0 6 4 9 9 5 5 -3 12 -1 16 5 3 5 0 10 -8 10 -7 0 -19 12 -26 28 l-13 27 21
-22 c14 -15 27 -19 43 -15 17 4 18 7 6 11 -8 3 -14 14 -12 24 1 9 -1 15 -6 12
-4 -2 -7 6 -7 20 0 14 3 23 7 20 3 -2 7 2 7 10 0 8 -5 12 -10 8 -5 -3 -6 3 -2
16 5 15 2 21 -9 21 -9 0 -16 -5 -16 -11 0 -5 4 -8 9 -5 10 6 6 -37 -5 -55 -5
-8 -3 -10 7 -4 12 7 12 6 1 -7 -10 -12 -10 -17 -1 -20 7 -2 13 -12 15 -21 1
-9 -2 -15 -7 -11 -5 3 -7 10 -4 15 4 5 2 9 -2 9 -5 0 -18 7 -29 15 -12 9 -13
13 -4 10 11 -4 16 1 17 15 1 13 -2 18 -10 13 -7 -4 -6 0 2 10 11 14 11 20 1
32 -7 8 -8 15 -3 15 5 0 9 14 9 30 0 17 -4 30 -10 30 -6 0 -5 5 2 12 7 7 12
16 12 22 0 6 -5 5 -12 -2 -7 -7 -16 -12 -20 -12 -4 0 0 8 10 18 21 22 32 9 27
-30 -2 -15 1 -28 6 -28 6 0 7 9 3 22 -6 19 -5 21 8 11 12 -10 15 -10 15 2 0 8
-5 12 -10 8 -5 -3 -6 4 -2 18 5 19 4 21 -4 9 -9 -13 -11 -13 -11 2 0 24 17 31
28 12 8 -15 10 -15 15 0 4 10 3 15 -2 12 -5 -3 -14 1 -21 9 -14 17 -45 21 -35
5 4 -6 11 -7 17 -4 7 4 8 2 4 -4 -8 -14 -39 -3 -33 12 3 6 8 20 12 31 7 20 6
20 -9 1 -9 -11 -16 -15 -16 -9 0 17 27 36 35 23 3 -5 3 -14 0 -20 -3 -5 -1
-10 5 -10 8 0 10 9 6 25 -5 20 -3 23 11 19 15 -5 16 -4 3 5 -13 9 -13 11 -1
11 11 0 9 4 -5 15 -10 8 -15 15 -10 15 5 0 3 7 -4 15 -10 13 -15 12 -32 -8
l-19 -22 14 25 c8 14 13 37 12 52 -1 15 2 25 7 22 4 -3 6 -10 3 -15 -4 -5 -1
-9 5 -9 7 0 9 -7 6 -16 -4 -10 -2 -13 6 -8 7 4 8 3 4 -4 -4 -7 -3 -12 3 -12 5
0 13 4 16 10 3 5 2 10 -3 10 -5 0 -12 9 -15 20 -3 13 0 20 10 20 8 0 11 5 8
10 -3 6 1 10 9 10 9 0 16 4 16 10 0 5 -8 7 -17 3 -17 -6 -17 -5 0 14 14 16 15
22 5 26 -9 4 -7 6 4 6 26 1 29 16 3 16 -13 0 -23 -4 -22 -9 1 -5 -10 -9 -25
-10 -14 -1 -24 2 -22 6 3 4 12 8 20 8 8 0 13 4 9 10 -3 5 -13 7 -23 4 -14 -5
-14 -4 -2 4 9 7 18 8 26 1 8 -7 14 -6 19 1 3 5 1 10 -4 10 -15 0 -14 16 4 33
8 8 11 18 7 23 -4 5 1 2 11 -5 24 -19 35 -5 11 15 -18 15 -18 15 3 5 12 -6 24
-16 26 -23 4 -10 6 -10 6 0 1 20 81 -49 81 -70 0 -11 7 -18 18 -18 14 0 15 2
2 10 -8 5 -10 10 -5 10 6 0 28 -16 50 -35 22 -19 43 -35 48 -35 4 0 7 -5 7
-11 0 -5 -4 -8 -8 -5 -5 3 -9 -1 -9 -9 0 -10 6 -11 24 -4 18 7 25 5 29 -6 4
-8 11 -12 16 -9 6 4 5 -3 -1 -15 -10 -17 -9 -25 4 -37 8 -9 13 -20 10 -25 -4
-5 -1 -9 5 -9 7 0 9 7 6 16 -4 10 -2 13 7 9 6 -4 1 2 -12 13 -23 19 -23 19 -3
24 16 4 19 2 15 -10 -4 -10 -2 -13 5 -8 6 3 13 2 17 -4 4 -6 11 -7 17 -4 7 4
8 2 4 -5 -4 -6 -12 -9 -17 -6 -8 6 -11 -2 -8 -21 0 -4 -5 -11 -13 -15 -8 -6
-1 -8 19 -5 40 4 52 -4 55 -37 1 -15 6 -27 10 -27 10 0 10 -2 -1 37 -6 21 -6
35 0 39 5 3 9 2 8 -3 -4 -21 2 -43 12 -43 5 0 8 4 5 8 -2 4 5 9 17 9 17 2 19
0 7 -7 -13 -8 -8 -14 11 -12 3 1 12 -9 19 -22 7 -15 21 -23 37 -23 13 0 29 -5
34 -10 10 -10 -43 -9 -60 1 -17 11 -21 -11 -4 -25 12 -10 14 -10 9 -1 -4 6 -2
12 3 12 6 0 11 -8 12 -17 0 -17 1 -17 7 -1 9 22 30 10 35 -20 5 -34 15 -37 12
-3 -1 16 2 35 7 43 8 10 9 9 4 -5 -5 -15 4 -22 26 -18 4 0 10 -8 13 -19 4 -11
11 -17 17 -14 6 4 6 -2 -1 -15 -13 -23 -23 -28 -20 -9 1 7 1 20 0 28 -1 13 -2
13 -11 0 -8 -13 -10 -12 -10 3 0 9 -5 17 -10 17 -7 0 -7 -6 -1 -18 7 -13 6
-23 -2 -32 -10 -12 -9 -12 4 -2 14 10 18 10 23 -3 3 -9 10 -13 16 -10 5 3 10
2 10 -2 0 -5 17 -17 38 -28 20 -11 40 -24 44 -30 4 -5 10 -6 14 -3 3 4 -8 15
-25 26 -17 10 -28 22 -24 26 4 4 -1 4 -12 1 -17 -6 -18 -5 -5 5 13 10 12 11
-3 6 -12 -4 -16 -2 -11 6 5 7 3 8 -7 3 -12 -8 -12 -6 0 8 14 18 26 23 17 8 -6
-9 14 -21 43 -27 8 -1 18 -10 23 -18 5 -8 17 -13 28 -11 12 2 17 -1 14 -9 -4
-9 3 -12 21 -10 25 2 26 1 10 -16 -15 -16 -14 -18 5 -23 15 -4 20 -2 17 7 -3
7 1 13 8 13 8 0 11 -7 7 -15 -4 -10 -1 -13 7 -8 10 6 9 3 0 -13 -9 -13 -16
-16 -20 -9 -10 16 -39 19 -58 7 -12 -8 -11 -9 7 -4 15 4 22 2 22 -7 0 -10 3
-9 10 2 5 8 10 11 11 5 2 -25 8 -47 14 -53 4 -4 5 1 3 10 -1 9 2 16 7 15 6 -1
9 -5 8 -9 -3 -9 25 -4 34 7 4 4 2 5 -6 0 -10 -5 -12 -4 -7 4 4 6 4 10 -1 9 -4
-2 -9 0 -10 5 -7 19 -1 19 22 -3 14 -13 25 -28 25 -34 0 -6 -4 -5 -9 2 -7 11
-9 11 -14 -1 -4 -11 0 -15 14 -12 21 4 26 -10 7 -19 -9 -3 -8 -5 2 -4 22 3 62
-21 54 -33 -4 -7 1 -7 14 0 14 7 23 8 27 1 3 -5 1 -10 -6 -10 -7 0 -10 -3 -6
-6 3 -3 11 -3 17 1 8 5 8 11 -1 21 -6 7 -16 11 -22 7 -6 -4 -7 -1 -2 7 5 8 4
11 -3 7 -5 -4 -18 -4 -28 0 -16 6 -16 7 2 15 17 7 16 8 -4 4 -12 -2 -20 0 -16
5 3 5 0 9 -5 9 -6 0 -11 8 -11 17 0 15 1 15 14 -2 8 -11 19 -16 30 -12 9 4 15
3 12 -2 -3 -4 8 -20 23 -35 25 -24 32 -26 52 -16 21 10 22 10 7 -3 -10 -8 -14
-18 -10 -22 4 -5 2 -5 -5 -1 -6 3 -15 1 -18 -5 -13 -20 5 -22 25 -4 23 21 50
28 50 14 0 -5 -5 -9 -12 -9 -13 0 -2 -14 13 -16 5 -1 13 -2 18 -3 16 -2 22
-33 10 -48 -9 -11 -9 -17 0 -26 10 -9 11 -8 6 6 -9 23 0 22 24 -4 14 -15 21
-17 26 -8 5 8 4 10 -3 5 -11 -6 -16 5 -13 26 0 4 -5 6 -12 4 -6 -1 -9 -1 -4 1
4 3 5 9 2 14 -4 5 -1 17 5 26 10 16 10 16 6 -2 -4 -13 4 -32 24 -54 16 -19 26
-39 23 -44 -3 -6 -1 -7 6 -3 6 4 9 11 7 15 -3 4 4 13 16 20 11 7 17 8 14 3 -3
-6 1 -13 10 -16 9 -4 14 -9 11 -13 -4 -3 -13 0 -21 6 -13 11 -14 8 -10 -15 6
-32 14 -45 14 -22 0 10 8 15 23 14 12 -1 28 3 36 8 11 8 13 8 7 -1 -9 -16 -1
-16 26 -2 15 8 19 8 14 0 -4 -6 -2 -11 3 -11 6 0 11 -4 11 -8 0 -5 -7 -9 -15
-9 -8 0 -12 4 -9 9 3 4 1 8 -3 8 -5 0 -14 -9 -21 -21 -8 -12 -9 -18 -3 -14 6
3 11 -2 12 -12 0 -16 1 -16 9 2 5 11 9 16 9 11 1 -5 8 -3 16 4 11 9 18 10 28
1 8 -6 18 -7 22 -3 5 4 5 -2 1 -13 -5 -15 -4 -17 5 -8 13 13 3 37 -12 28 -5
-4 -9 -1 -9 4 0 6 7 11 16 11 8 0 13 4 9 9 -3 6 6 8 21 5 18 -3 23 -1 18 7 -4
7 -3 9 3 6 11 -7 28 20 24 36 -1 5 4 5 10 2 8 -5 8 -10 0 -18 -13 -13 -15 -28
-3 -26 15 2 52 -14 52 -23 0 -5 7 -2 16 6 18 19 38 21 28 4 -4 -7 -4 -10 1 -6
4 4 14 0 22 -10 8 -9 12 -11 8 -4 -9 17 13 42 31 35 8 -3 14 0 14 7 0 6 5 8
12 4 6 -4 4 3 -5 16 -13 19 -14 27 -4 39 10 12 9 14 -6 8 -9 -3 -17 -2 -17 3
0 6 7 10 15 10 8 0 15 5 15 10 0 6 -6 10 -14 10 -8 0 -17 4 -21 10 -3 5 7 5
25 -1 16 -6 27 -15 24 -20 -3 -5 0 -9 6 -9 14 0 5 48 -15 70 -8 9 -15 22 -15
29 0 7 -5 9 -10 6 -7 -4 -8 -11 -1 -18 5 -7 11 -16 13 -22 1 -5 6 -9 10 -8 5
2 8 -2 8 -7 0 -12 -10 -13 -28 -1 -7 4 -12 14 -10 22 2 8 -3 13 -9 12 -18 -4
-16 8 4 23 11 7 22 9 29 3 7 -5 11 -4 11 5 0 9 -9 13 -23 11 -13 -1 -21 2 -18
6 2 5 -4 14 -16 21 -11 7 -20 16 -20 21 0 4 5 5 11 1 7 -4 10 -1 7 7 -6 14 -9
15 -43 4 -16 -4 -15 -3 3 6 24 13 28 24 12 34 -5 3 -10 2 -10 -4 0 -6 -7 -8
-15 -4 -20 7 -16 11 19 17 16 3 34 10 40 17 8 9 6 9 -11 0 -15 -8 -24 -8 -28
-1 -5 8 -11 7 -21 -1 -8 -6 -17 -9 -21 -5 -3 3 0 6 8 6 11 0 11 2 -1 10 -19
12 -20 32 -2 45 10 9 9 11 -7 11 -11 0 -18 -2 -16 -4 6 -6 -22 -32 -34 -32 -6
0 -11 7 -11 15 0 8 -5 15 -11 15 -5 0 -7 5 -4 10 3 6 3 16 -2 23 -4 6 -8 14
-8 17 -1 3 -6 21 -13 41 -11 32 -22 40 -138 94 -255 119 -641 345 -628 367 4
7 2 8 -5 4 -14 -9 -134 77 -123 89 4 5 2 5 -5 2 -6 -4 -42 17 -80 46 -98 76
-113 90 -107 99 3 4 -3 5 -12 1 -12 -4 -15 -3 -10 5 4 7 2 12 -4 12 -13 0 -31
13 -81 63 -22 20 -39 34 -39 31 0 -3 -7 1 -15 10 -18 17 -20 30 -3 20 7 -4 8
-3 4 4 -4 6 -13 9 -20 6 -8 -3 -23 6 -34 20 -11 14 -24 26 -29 26 -15 0 -60
55 -55 68 2 8 -3 10 -15 5 -16 -6 -17 -5 -3 12 14 17 13 18 -8 13 -12 -4 -20
-2 -17 2 3 5 -3 10 -12 12 -15 3 -14 5 5 10 12 3 20 2 17 -2 -3 -4 4 -6 15 -3
11 3 20 9 20 14 0 5 -7 5 -17 2 -12 -5 -14 -3 -8 7 5 8 4 11 -3 6 -5 -3 -12
-3 -15 1 -2 5 -3 3 -1 -3 1 -6 -4 -11 -12 -11 -8 0 -12 3 -9 5 3 3 0 11 -5 17
-7 8 -4 17 9 29 16 15 19 15 24 2 4 -10 1 -13 -7 -10 -8 3 -17 1 -20 -4 -3 -5
6 -9 19 -9 14 0 25 4 25 9 0 5 6 6 13 3 6 -4 1 3 -12 15 -21 18 -23 24 -13 41
7 10 12 21 12 24 0 7 -32 1 -47 -8 -8 -5 -13 -4 -13 2 0 6 6 11 13 11 8 0 7 3
-3 10 -12 7 -10 9 7 7 12 0 19 -6 16 -12 -4 -5 -2 -6 3 -2 5 5 9 12 9 15 0 4
4 13 9 21 6 10 5 12 -2 7 -7 -4 -12 -2 -12 3 0 6 -6 11 -14 11 -8 0 -17 7 -20
16 -5 14 -4 15 8 5 7 -6 20 -9 27 -6 18 7 43 45 29 45 -5 0 -10 -5 -10 -11 0
-5 -5 -7 -11 -3 -7 4 -7 10 -1 16 6 6 8 18 4 27 -5 14 -4 14 13 1 17 -14 17
-14 4 7 -9 16 -16 19 -21 10 -4 -7 -8 -7 -8 -2 0 6 5 16 12 23 7 7 8 12 2 12
-6 0 -15 -5 -21 -11 -8 -8 -13 -8 -18 0 -3 6 -3 11 2 10 20 -3 23 2 13 24 -10
21 -10 21 4 3 8 -10 20 -15 26 -11 9 6 9 10 -1 17 -11 8 -10 9 3 4 10 -3 23 0
30 8 10 10 16 8 36 -13 l23 -26 -16 35 c-11 25 -12 30 -2 18 8 -10 18 -14 22
-10 5 4 5 1 1 -5 -4 -7 -3 -13 2 -13 5 0 8 -11 7 -25 -2 -14 1 -23 5 -20 5 3
6 13 3 23 -6 15 -5 16 13 2 18 -14 18 -14 5 3 -13 16 -13 19 0 17 24 -3 59 12
53 22 -8 13 17 29 31 20 5 -4 21 -8 35 -9 44 -4 50 -6 50 -14 0 -4 -6 -9 -12
-12 -8 -2 -9 -8 -4 -13 5 -5 11 -3 14 5 7 21 42 52 52 46 4 -3 11 0 13 5 3 6
4 5 3 -2 -2 -7 -9 -12 -15 -10 -7 1 -10 -2 -6 -8 3 -6 11 -7 17 -4 6 4 17 -1
25 -11 7 -11 13 -13 13 -6 0 7 4 10 9 6 5 -3 12 -1 16 5 4 7 13 7 26 0 11 -6
25 -8 31 -4 8 5 9 1 4 -12 -5 -14 -4 -16 5 -7 15 15 3 34 -18 26 -10 -4 -14
-2 -10 4 4 6 -3 9 -19 7 -21 -2 -23 0 -13 12 14 17 23 19 13 3 -4 -7 -1 -10 7
-7 8 3 13 11 11 17 -1 7 2 10 8 6 6 -3 8 -11 5 -16 -4 -5 1 -9 9 -9 8 0 20 -8
25 -17 6 -10 11 -12 11 -5 0 6 5 12 11 12 5 0 7 -5 3 -12 -4 -7 -3 -8 5 -4 9
6 9 11 -1 24 -12 14 -10 14 10 3 12 -6 22 -8 22 -4 0 4 7 -1 15 -11 13 -17 15
-18 15 -3 0 9 -4 18 -10 18 -5 1 -16 2 -22 3 -7 0 -14 10 -15 21 -3 20 -3 20
5 0 9 -19 9 -19 21 0 11 18 12 18 7 1 -5 -14 -2 -17 9 -12 9 3 13 2 10 -4 -3
-6 -1 -10 5 -10 6 0 8 -5 4 -12 -4 -7 -3 -8 5 -4 6 4 20 2 29 -6 15 -12 16
-11 3 5 -17 21 2 23 19 2 9 -11 16 -13 24 -5 15 15 30 12 17 -4 -8 -10 -9 -16
-1 -21 6 -4 9 -1 8 7 -2 7 3 12 10 10 9 -1 8 5 -4 23 -14 22 -33 38 -21 18 3
-5 -15 -8 -39 -9 -29 0 -44 4 -44 12 0 7 4 16 10 19 6 4 7 -1 3 -11 -5 -14 -3
-15 15 -5 12 7 22 17 22 23 0 6 3 8 6 5 4 -4 1 -13 -6 -22 -8 -9 -8 -15 -2
-15 6 0 14 5 17 10 4 6 14 9 23 8 9 -2 17 2 17 9 0 6 3 14 7 18 9 9 5 -16 -5
-32 -5 -7 -4 -13 2 -13 5 0 13 5 16 10 9 14 28 12 22 -2 -2 -7 -10 -12 -16
-10 -13 2 -15 -14 -2 -22 5 -3 12 1 15 10 6 15 8 15 27 -2 14 -13 18 -14 14
-3 -4 10 1 15 16 16 18 2 19 0 7 -15 -12 -15 -11 -16 4 -3 10 7 15 18 12 25
-3 6 2 2 10 -8 10 -12 16 -15 16 -7 0 9 6 7 18 -6 9 -10 14 -14 10 -9 -5 6 -8
14 -8 18 0 4 3 7 8 7 19 -3 32 2 32 12 0 8 -6 7 -17 -2 -10 -7 -15 -9 -11 -5
4 5 2 16 -5 24 -10 13 -9 14 2 7 11 -6 13 -4 8 8 -4 10 -2 16 6 14 7 -1 11 3
10 9 -1 6 5 11 12 11 10 0 12 -4 5 -12 -5 -7 -6 -16 -2 -20 4 -5 1 -5 -5 -1
-7 4 -13 3 -13 -3 0 -18 17 -21 30 -6 15 18 33 20 28 3 -3 -7 -11 -13 -18 -13
-7 0 -14 -8 -16 -18 -2 -17 -1 -17 15 -3 20 19 35 21 25 4 -4 -6 -3 -8 4 -4 6
3 13 2 17 -4 3 -5 11 -10 18 -10 6 0 2 7 -9 15 -17 13 -17 14 -1 15 9 0 17 5
17 10 0 7 -6 7 -19 0 -15 -7 -19 -7 -17 5 3 22 14 29 28 17 7 -6 17 -10 21
-10 5 0 12 -4 15 -8 4 -4 2 -4 -4 -1 -6 3 -11 0 -11 -8 0 -20 13 -19 21 1 5
13 9 14 21 4 10 -9 15 -9 15 -1 0 10 -13 15 -32 13 -3 -1 -9 5 -12 14 -3 8 -1
12 4 9 11 -7 51 12 62 28 4 7 12 6 22 -2 20 -17 20 -28 2 -28 -8 0 -12 6 -9
14 4 10 -3 9 -25 -4 -29 -17 -30 -17 -8 -28 11 -7 20 -18 18 -26 -3 -11 -1
-12 9 -2 10 11 9 16 -7 28 -19 15 -19 16 1 13 24 -4 45 -20 38 -30 -2 -4 3 -5
12 -1 9 3 13 9 8 12 -5 3 -9 20 -9 36 0 19 -5 29 -13 27 -7 -1 -9 2 -6 9 8 12
29 -3 31 -22 1 -5 2 -13 3 -19 0 -5 5 -10 10 -10 6 0 6 12 1 29 -6 23 -5 29 5
25 8 -3 11 -12 8 -20 -3 -8 0 -14 7 -14 6 0 8 -5 4 -12 -4 -7 -3 -8 4 -4 7 4
10 22 7 44 -4 34 -4 35 7 12 6 -14 10 -28 10 -32 -1 -4 8 -12 21 -18 21 -11
21 -10 3 4 -11 9 -18 16 -15 17 2 0 14 2 27 5 14 2 21 0 17 -6 -3 -5 -1 -10 5
-10 7 0 10 6 7 13 -3 9 4 12 25 11 22 -2 27 1 19 9 -17 17 -13 26 8 22 13 -2
18 1 16 13 -2 9 -4 20 -4 25 -1 4 -6 7 -12 7 -5 0 -7 -4 -4 -10 3 -5 -5 -15
-19 -22 -14 -6 -26 -15 -26 -20 0 -5 4 -7 9 -3 5 3 13 0 17 -6 5 -9 0 -10 -16
-6 -13 3 -30 1 -37 -5 -22 -18 -14 0 11 25 14 14 27 23 29 21 2 -2 10 7 17 21
10 18 19 24 34 20 12 -3 16 -2 9 1 -7 3 -11 11 -9 17 1 7 1 9 -1 5 -3 -5 -9
-8 -14 -8 -13 0 -7 23 11 37 13 11 13 12 -3 7 -11 -4 -16 -2 -14 7 2 8 2 11 0
6 -3 -4 -9 -5 -14 -1 -5 3 -5 12 0 23 10 19 9 19 -41 24 -14 1 -30 6 -35 11
-5 5 -3 6 5 2 6 -4 16 -5 22 -1 11 7 2 35 -12 35 -6 0 -4 -7 3 -17 13 -15 12
-15 -11 -3 l-25 13 23 10 c12 6 22 14 22 18 0 12 -33 -1 -47 -19 -12 -14 -13
-14 -13 1 0 9 5 17 11 17 5 0 8 4 4 9 -3 5 3 17 12 27 16 16 16 16 -6 9 -18
-5 -22 -4 -16 5 5 8 4 11 -3 7 -5 -4 -8 -16 -5 -26 3 -10 0 -22 -6 -25 -7 -5
-10 1 -8 15 1 12 -3 24 -10 26 -6 2 -10 -4 -9 -14 2 -10 1 -12 -1 -5 -3 7 -10
9 -16 6 -7 -4 -9 -4 -5 1 4 4 1 13 -8 19 -13 10 -12 12 6 13 11 1 18 -2 15 -7
-3 -4 4 -6 15 -3 31 8 24 20 -11 18 -39 -2 -45 4 -99 108 -42 80 -47 87 -76
87 -17 0 -230 -20 -475 -45 -552 -55 -534 -54 -534 -35 0 8 -7 18 -15 23 -9 4
-3 5 12 2 23 -4 27 -2 25 12 -1 10 -6 24 -10 31 -5 6 -5 18 0 25 12 19 14 45
3 52 -6 4 -8 10 -5 15 3 5 0 12 -6 16 -8 5 -9 3 -4 -7 5 -8 5 -11 0 -7 -4 4
-16 3 -26 -2 -12 -7 -20 -6 -25 2 -4 6 -3 8 3 5 6 -4 18 0 29 7 10 8 24 12 31
9 14 -6 13 30 -1 44 -4 4 3 15 16 25 20 16 20 17 3 12 -11 -4 -17 -4 -13 1 4
4 3 14 -3 22 -9 10 -8 17 1 28 10 12 11 18 1 28 -7 7 -15 12 -19 13 -4 0 -18
6 -32 12 -18 7 -20 11 -8 11 12 1 16 7 12 19 -5 14 -4 14 4 2 6 -8 8 -18 5
-24 -4 -5 -1 -6 6 -1 7 4 23 -3 38 -16 l26 -24 -19 27 c-10 15 -26 28 -34 28
-11 0 -12 2 -3 8 8 5 2 12 -17 20 -16 7 -32 22 -35 33 -4 10 -11 19 -16 19 -6
0 -7 5 -4 10 3 6 1 10 -4 10 -6 0 -11 -5 -11 -11 0 -5 -4 -8 -10 -4 -5 3 -8
11 -6 18 1 7 1 9 -1 5 -11 -19 -23 -6 -12 13 6 13 7 19 1 15 -6 -3 -12 0 -15
6 -3 7 -4 0 -3 -15 2 -16 9 -33 17 -38 9 -6 10 -9 2 -9 -6 0 -15 5 -18 10 -4
6 -11 7 -17 4 -6 -4 -5 -10 3 -15 10 -6 10 -9 2 -9 -16 0 -26 17 -13 25 13 8
13 35 -1 35 -5 0 -8 -4 -4 -9 3 -5 1 -12 -3 -15 -5 -3 -8 15 -7 39 1 25 -1 49
-4 53 -9 14 -318 242 -328 242 -4 0 -28 -195 -51 -432z m502 39 c14 -15 21
-27 16 -27 -5 0 -12 5 -15 11 -4 6 -14 8 -22 5 -8 -3 -12 -2 -9 3 3 5 -2 15
-11 22 -15 12 -16 12 -10 -5 6 -16 5 -17 -8 -6 -12 10 -13 15 -4 21 19 11 36
5 63 -24z m-21 -31 c3 3 14 1 24 -6 16 -10 15 -10 -6 -4 -16 4 -21 3 -17 -5
12 -19 0 -12 -20 11 -12 14 -13 18 -3 10 9 -6 18 -9 22 -6z m88 -81 c-1 -3 -4
-5 -8 -6 -5 0 -13 -5 -19 -10 -7 -5 -11 -3 -11 6 0 8 4 12 8 10 4 -3 10 3 14
13 5 11 9 13 12 5 2 -7 4 -15 4 -18z m5 -62 c-2 -9 -9 -19 -16 -21 -9 -3 -11
1 -7 12 4 10 1 19 -9 23 -12 5 -13 7 -3 14 17 10 38 -7 35 -28z m-48 -13 c-7
-10 -14 -17 -17 -15 -4 4 18 35 25 35 2 0 -1 -9 -8 -20z m49 -45 c0 -8 -4 -12
-9 -9 -5 3 -14 1 -21 -5 -9 -7 -13 -5 -13 8 0 12 5 17 15 13 9 -3 12 -1 7 6
-4 7 -2 10 7 6 7 -2 14 -11 14 -19z m-6 -62 c0 -5 2 -16 4 -25 4 -22 -20 -44
-31 -27 -4 7 -3 9 4 5 6 -3 13 -2 16 3 3 5 -3 11 -14 14 -13 3 -18 10 -14 21
6 16 33 23 35 9z m-101 -17 c0 -2 -7 -7 -16 -10 -8 -3 -12 -2 -9 4 6 10 25 14
25 6z m94 -76 c4 0 4 6 0 13 -4 6 -3 8 1 4 5 -4 10 -14 11 -22 3 -21 -32 -1
-40 22 -6 17 -5 17 8 1 7 -10 16 -18 20 -18z m-54 10 c0 -5 -2 -10 -4 -10 -3
0 -8 5 -11 10 -3 6 -1 10 4 10 6 0 11 -4 11 -10z m0 -40 c0 -5 -2 -10 -4 -10
-3 0 -8 5 -11 10 -3 6 -1 10 4 10 6 0 11 -4 11 -10z m28 -24 c-7 -8 -15 -12
-17 -11 -5 6 10 25 20 25 5 0 4 -6 -3 -14z m1263 -249 c-10 -9 -11 -8 -5 6 3
10 9 15 12 12 3 -3 0 -11 -7 -18z m89 -28 c0 -5 -4 -9 -10 -9 -5 0 -10 5 -10
11 0 5 -5 7 -12 3 -7 -4 -8 -3 -4 4 7 12 36 5 36 -9z m10 -35 c12 -13 10 -15
-13 -12 -14 2 -30 8 -34 13 -4 4 -2 5 5 1 6 -4 12 -2 12 3 0 16 16 13 30 -5z
m-55 -14 c10 -11 16 -20 13 -20 -3 0 -13 9 -23 20 -10 11 -16 20 -13 20 3 0
13 -9 23 -20z m61 -27 c-1 -7 -8 -19 -16 -26 -11 -9 -11 -8 0 7 13 18 13 19
-1 14 -9 -3 -16 -1 -16 6 0 6 8 12 17 12 10 0 17 -6 16 -13z m-281 -52 c3 -5
2 -12 -3 -15 -5 -3 -9 1 -9 9 0 17 3 19 12 6z m235 -6 c0 -2 -6 -8 -13 -14
-10 -8 -14 -7 -14 2 0 8 6 14 14 14 7 0 13 -1 13 -2z m-93 -20 c0 -8 -4 -12
-9 -9 -5 3 -6 10 -3 15 9 13 12 11 12 -6z m-927 -1 c0 -8 -19 -13 -24 -6 -3 5
1 9 9 9 8 0 15 -2 15 -3z m854 -6 c-3 -4 -9 -8 -15 -8 -5 0 -9 4 -9 8 0 5 7 9
15 9 8 0 12 -4 9 -9z m123 -10 c-3 -8 -6 -5 -6 6 -1 11 2 17 5 13 3 -3 4 -12
1 -19z m-390 -3 c0 -8 -4 -12 -9 -9 -5 3 -6 10 -3 15 9 13 12 11 12 -6z m80 0
c0 -8 -4 -12 -9 -9 -5 3 -6 10 -3 15 9 13 12 11 12 -6z m123 -5 c0 -5 -5 -10
-11 -10 -5 0 -7 5 -4 10 3 6 8 10 11 10 2 0 4 -4 4 -10z m-496 -18 c3 -5 -1
-9 -9 -9 -8 0 -12 4 -9 9 3 4 7 8 9 8 2 0 6 -4 9 -8z m136 4 c0 -3 -4 -8 -10
-11 -5 -3 -10 -1 -10 4 0 6 5 11 10 11 6 0 10 -2 10 -4z m271 -13 c13 -16 12
-17 -3 -4 -17 13 -22 21 -14 21 2 0 10 -8 17 -17z m-971 -13 c0 -5 -2 -10 -4
-10 -3 0 -8 5 -11 10 -3 6 -1 10 4 10 6 0 11 -4 11 -10z m314 -6 c3 -8 2 -12
-4 -9 -6 3 -10 10 -10 16 0 14 7 11 14 -7z m141 7 c3 -5 2 -12 -3 -15 -5 -3
-9 1 -9 9 0 17 3 19 12 6z m205 5 c0 -3 -4 -8 -10 -11 -5 -3 -10 -1 -10 4 0 6
5 11 10 11 6 0 10 -2 10 -4z m-504 -21 c-1 -8 -5 -17 -8 -21 -5 -4 -4 16 1 34
3 9 9 -1 7 -13z m679 -6 c-3 -12 -7 -24 -10 -27 -3 -3 -3 5 -1 19 6 30 5 29
10 29 3 0 3 -10 1 -21z m-1561 -5 c3 -8 2 -12 -4 -9 -6 3 -10 10 -10 16 0 14
7 11 14 -7z m1290 8 c2 -4 -4 -8 -14 -8 -10 0 -16 4 -14 8 3 4 9 8 14 8 5 0
11 -4 14 -8z m31 -11 c3 -5 2 -12 -3 -15 -5 -3 -9 1 -9 9 0 17 3 19 12 6z
m-130 -11 c3 -6 -1 -7 -9 -4 -18 7 -21 14 -7 14 6 0 13 -4 16 -10z m341 -18
c-11 -11 -36 -11 -43 0 -4 7 -1 8 7 3 10 -6 12 -4 7 9 -6 14 -3 15 14 5 11 -6
18 -13 15 -17z m60 -9 c-3 -4 -6 0 -6 8 0 11 -2 11 -10 -1 -8 -13 -10 -13 -10
1 0 24 13 32 23 14 5 -9 6 -19 3 -22z m-531 17 c-3 -5 -12 -10 -18 -10 -7 0
-6 4 3 10 19 12 23 12 15 0z m64 -3 c14 4 14 3 -1 -10 -13 -10 -14 -17 -6 -25
8 -8 6 -10 -8 -8 -20 3 -32 26 -14 26 9 0 9 4 -1 18 -11 14 -11 15 0 5 7 -6
21 -9 30 -6z m99 -22 c-3 -17 -4 -17 -18 0 -12 15 -12 17 -1 10 11 -6 13 -4 7
11 -5 14 -4 16 4 8 7 -7 10 -20 8 -29z m-498 15 c0 -5 -2 -10 -4 -10 -3 0 -8
5 -11 10 -3 6 -1 10 4 10 6 0 11 -4 11 -10z m105 0 c-3 -5 -12 -10 -18 -10 -7
0 -6 4 3 10 19 12 23 12 15 0z m55 -2 c0 -4 -4 -8 -9 -8 -6 0 -12 4 -15 8 -3
5 1 9 9 9 8 0 15 -4 15 -9z m134 -12 c-3 -9 -13 -12 -27 -8 -21 6 -21 6 3 13
14 4 26 7 27 8 1 1 0 -5 -3 -13z m-156 -24 c-2 -8 -13 -16 -25 -17 -22 -2 -22
5 0 32 12 16 29 6 25 -15z m542 14 c0 -3 -4 -8 -10 -11 -5 -3 -10 -1 -10 4 0
6 5 11 10 11 6 0 10 -2 10 -4z m-1580 -10 c0 -2 -7 -7 -16 -10 -8 -3 -12 -2
-9 4 6 10 25 14 25 6z m780 -26 c0 -5 -2 -10 -4 -10 -3 0 -8 5 -11 10 -3 6 -1
10 4 10 6 0 11 -4 11 -10z m-783 -29 c0 -11 -5 -18 -9 -15 -4 3 -5 11 -1 19 7
21 12 19 10 -4z m-106 -24 c-10 -9 -11 -8 -5 6 3 10 9 15 12 12 3 -3 0 -11 -7
-18z m193 15 c3 -5 -1 -9 -9 -9 -8 0 -12 4 -9 9 3 4 7 8 9 8 2 0 6 -4 9 -8z
m-794 -22 c-18 -12 -30 -13 -30 -2 0 4 10 9 22 9 18 2 20 0 8 -7z m305 -8 c-3
-3 -11 0 -18 7 -9 10 -8 11 6 5 10 -3 15 -9 12 -12z m176 1 c13 -16 12 -17 -3
-4 -17 13 -22 21 -14 21 2 0 10 -8 17 -17z m282 2 c4 -8 3 -16 -1 -19 -4 -3
-9 4 -9 15 -2 23 3 25 10 4z m772 5 c3 -6 -1 -7 -9 -4 -18 7 -21 14 -7 14 6 0
13 -4 16 -10z m-1332 -15 c-3 -9 -8 -14 -10 -11 -3 3 -2 9 2 15 9 16 15 13 8
-4z m642 6 c3 -5 2 -12 -3 -15 -5 -3 -9 1 -9 9 0 17 3 19 12 6z m-260 -11 c3
-5 1 -10 -4 -10 -6 0 -11 5 -11 10 0 6 2 10 4 10 3 0 8 -4 11 -10z m985 -24
c-7 -7 -15 -5 -28 7 -16 17 -16 18 2 11 15 -6 17 -4 11 7 -8 12 -6 12 9 0 12
-10 14 -17 6 -25z m-925 15 c3 -5 2 -12 -3 -15 -5 -3 -9 1 -9 9 0 17 3 19 12
6z m92 3 c-3 -3 -12 -4 -19 -1 -8 3 -5 6 6 6 11 1 17 -2 13 -5z m-377 -14 c8
-5 11 -10 5 -10 -5 0 -17 5 -25 10 -8 5 -10 10 -5 10 6 0 17 -5 25 -10z m1121
-7 c13 -17 13 -17 -6 -3 -11 8 -22 16 -24 17 -2 2 0 3 6 3 6 0 17 -8 24 -17z
m-1456 -13 c4 -6 1 -9 -7 -8 -7 2 -12 -2 -11 -9 2 -7 -4 -10 -12 -7 -11 4 -13
-1 -9 -22 l5 -28 -20 26 c-24 31 -27 42 -7 35 8 -3 22 1 33 8 22 17 20 17 28
5z m1523 0 c2 -2 11 -5 28 -9 3 0 2 -6 -1 -12 -5 -7 -13 -5 -24 5 -10 9 -20
13 -23 10 -3 -3 -9 -1 -12 4 -5 8 22 9 32 2z m-1008 -15 c-15 -18 1 -20 18 -3
9 9 12 9 12 0 0 -7 -4 -12 -10 -12 -5 0 -10 -4 -10 -10 0 -5 8 -7 18 -3 14 5
15 3 5 -7 -9 -9 -16 -10 -25 -3 -7 6 -21 9 -32 7 -16 -2 -16 0 5 22 25 26 39
33 19 9z m197 -6 c2 -17 -1 -18 -13 -8 -13 11 -10 20 11 29 1 0 1 -9 2 -21z
m-647 1 c0 -5 -2 -10 -4 -10 -3 0 -8 5 -11 10 -3 6 -1 10 4 10 6 0 11 -4 11
-10z m285 0 c3 -6 -1 -7 -9 -4 -18 7 -21 14 -7 14 6 0 13 -4 16 -10z m69 -5
c-4 -8 -8 -15 -10 -15 -2 0 -4 7 -4 15 0 8 4 15 10 15 5 0 7 -7 4 -15z m-257
-20 c0 -8 -4 -12 -9 -9 -5 3 -6 10 -3 15 9 13 12 11 12 -6z m137 3 c-3 -4 -11
-5 -19 -1 -21 7 -19 12 4 10 11 0 18 -5 15 -9z m-244 -12 c0 -2 -8 -10 -17
-17 -16 -13 -17 -12 -4 4 13 16 21 21 21 13z m157 -16 c-6 -24 -1 -25 21 -4
14 15 17 15 29 -2 7 -9 16 -15 19 -11 4 4 1 15 -7 24 -11 15 -11 16 1 6 17
-15 44 -17 35 -3 -3 6 -2 10 3 10 16 0 22 -29 9 -37 -7 -4 -32 -8 -57 -8 -25
0 -50 -4 -57 -8 -7 -5 -10 -1 -8 10 2 10 4 24 4 31 1 6 4 12 7 12 4 0 4 -9 1
-20z m1293 10 c0 -5 -4 -10 -10 -10 -5 0 -10 5 -10 10 0 6 5 10 10 10 6 0 10
-4 10 -10z m-1505 -10 c3 -6 -1 -7 -9 -4 -18 7 -21 14 -7 14 6 0 13 -4 16 -10z
m1542 -6 c-3 -3 -12 -4 -19 -1 -8 3 -5 6 6 6 11 1 17 -2 13 -5z m-1552 -38
c-2 -11 -2 -16 1 -9 3 7 13 9 22 6 15 -6 15 -4 4 9 -11 14 -10 16 5 13 10 -2
20 -4 23 -6 9 -4 24 -7 45 -8 17 -1 17 -3 5 -11 -8 -5 -22 -7 -32 -4 -9 2 -19
1 -21 -4 -10 -15 -62 -8 -62 8 0 8 -4 21 -8 27 -6 9 -3 11 8 7 10 -4 14 -14
10 -28z m82 28 c-3 -3 -12 -4 -19 -1 -8 3 -5 6 6 6 11 1 17 -2 13 -5z m1473
-49 c-7 -8 -18 -15 -24 -15 -6 0 -2 7 8 15 25 19 32 19 16 0z m-60 -59 c0 -3
-4 -8 -10 -11 -5 -3 -10 -1 -10 4 0 6 5 11 10 11 6 0 10 -2 10 -4z m-669 -559
c-10 -9 -11 -8 -5 6 3 10 9 15 12 12 3 -3 0 -11 -7 -18z m559 -63 c0 -8 -19
-13 -24 -6 -3 5 1 9 9 9 8 0 15 -2 15 -3z m-30 -79 c14 -19 14 -19 -2 -6 -10
7 -18 18 -18 24 0 6 1 8 3 6 1 -2 9 -13 17 -24z m134 13 c-3 -4 -11 -5 -19 -1
-21 7 -19 12 4 10 11 0 18 -5 15 -9z m-25 -22 c8 -10 9 -16 1 -21 -6 -4 -9 -1
-8 7 2 7 -3 12 -10 10 -8 -1 -11 2 -7 8 8 13 10 13 24 -4z m-694 -35 c-9 -8
-36 -10 -30 -2 2 4 11 8 20 8 8 0 13 -3 10 -6z m536 -54 c-10 -9 -11 -8 -5 6
3 10 9 15 12 12 3 -3 0 -11 -7 -18z m189 -17 c0 -4 -3 -10 -7 -14 -5 -4 -8
-13 -8 -19 0 -7 -7 -12 -15 -12 -8 0 -15 7 -15 15 0 8 6 14 13 13 6 -2 12 1
12 6 0 5 -6 11 -12 14 -7 3 -3 4 10 4 12 -1 22 -4 22 -7z m-680 -30 c0 -5 -2
-10 -4 -10 -3 0 -8 5 -11 10 -3 6 -1 10 4 10 6 0 11 -4 11 -10z m-145 -59 c-9
-8 -36 -10 -30 -2 2 4 11 8 20 8 8 0 13 -3 10 -6z m100 0 c3 -5 2 -12 -3 -15
-5 -3 -9 1 -9 9 0 17 3 19 12 6z m48 -6 c-3 -9 -8 -14 -10 -11 -3 3 -2 9 2 15
9 16 15 13 8 -4z m4 -42 c0 -8 -6 -9 -17 -3 -10 5 -20 6 -24 3 -3 -3 -6 -1 -6
5 0 7 11 11 23 10 13 -1 24 -8 24 -15z m-194 -8 c-3 -9 -8 -14 -10 -11 -3 3
-2 9 2 15 9 16 15 13 8 -4z m834 8 c-4 -3 -2 -12 4 -20 6 -7 10 -13 8 -14 -43
-8 -53 -8 -39 1 8 5 11 10 6 10 -9 0 13 30 22 30 3 0 2 -3 -1 -7z m436 -10
c-5 -12 -3 -14 8 -8 8 4 11 4 6 0 -12 -14 -45 -16 -53 -3 -5 7 -2 9 9 5 9 -3
18 0 21 9 3 8 8 14 10 14 3 0 2 -7 -1 -17z m-1208 -3 c3 -5 1 -10 -4 -10 -6 0
-11 5 -11 10 0 6 2 10 4 10 3 0 8 -4 11 -10z m1350 -88 c-3 -3 -11 0 -18 7 -9
10 -8 11 6 5 10 -3 15 -9 12 -12z m-1409 -1 c-4 -5 0 -11 6 -14 7 -3 3 -4 -9
-4 -17 1 -19 4 -11 14 12 15 22 18 14 4z m-236 -5 c0 -2 -7 -7 -16 -10 -8 -3
-12 -2 -9 4 6 10 25 14 25 6z m1040 -35 c0 -6 -4 -12 -8 -15 -5 -3 -9 1 -9 9
0 8 4 15 9 15 4 0 8 -4 8 -9z m-843 -36 c-4 -8 -2 -17 2 -20 5 -3 4 -16 -2
-29 -7 -13 -16 -22 -20 -19 -5 3 -23 -9 -40 -25 -18 -17 -37 -28 -43 -24 -13
8 -15 44 -2 36 12 -8 49 26 42 37 -3 5 3 6 12 2 13 -5 15 -3 9 7 -5 9 -4 11 4
6 6 -4 9 -12 6 -17 -4 -5 -1 -9 5 -9 7 0 9 12 6 30 -2 17 0 28 5 24 5 -3 9 0
9 5 0 6 3 11 6 11 3 0 4 -7 1 -15z m-107 -9 c0 -2 -8 -10 -17 -17 -16 -13 -17
-12 -4 4 13 16 21 21 21 13z m44 -4 c3 -5 -1 -9 -9 -9 -8 0 -12 4 -9 9 3 4 7
8 9 8 2 0 6 -4 9 -8z m1691 -30 c-3 -3 -11 0 -18 7 -9 10 -8 11 6 5 10 -3 15
-9 12 -12z m-1850 -20 c-3 -3 -11 0 -18 7 -9 10 -8 11 6 5 10 -3 15 -9 12 -12z
m130 0 c-3 -3 -11 0 -18 7 -9 10 -8 11 6 5 10 -3 15 -9 12 -12z m2561 -16 c1
-14 -5 -27 -14 -31 -13 -5 -13 -3 -1 11 12 15 11 16 -11 9 l-25 -8 25 21 c14
12 25 21 25 22 0 0 1 -11 1 -24z m-2751 5 c3 -5 2 -12 -3 -15 -5 -3 -9 1 -9 9
0 17 3 19 12 6z m100 0 c3 -5 2 -12 -3 -15 -5 -3 -9 1 -9 9 0 17 3 19 12 6z
m40 0 c3 -5 2 -12 -3 -15 -5 -3 -9 1 -9 9 0 17 3 19 12 6z m975 -17 c0 -8 -19
-13 -24 -6 -3 5 1 9 9 9 8 0 15 -2 15 -3z m-1055 -23 c3 -5 2 -12 -3 -15 -5
-3 -9 1 -9 9 0 17 3 19 12 6z m-222 -36 c-3 -9 -8 -14 -10 -11 -3 3 -2 9 2 15
9 16 15 13 8 -4z m122 6 c3 -5 2 -12 -3 -15 -5 -3 -9 1 -9 9 0 17 3 19 12 6z
m61 -13 c3 -4 -1 -5 -10 -4 -8 1 -18 5 -22 8 -3 4 1 5 10 4 8 -1 18 -5 22 -8z
m44 2 c0 -5 -5 -10 -11 -10 -5 0 -7 5 -4 10 3 6 8 10 11 10 2 0 4 -4 4 -10z
m2057 -15 c0 -8 -4 -15 -9 -15 -10 0 -11 14 -1 23 9 10 10 9 10 -8z m-2117
-25 c0 -5 -2 -10 -4 -10 -3 0 -8 5 -11 10 -3 6 -1 10 4 10 6 0 11 -4 11 -10z
m1100 0 c0 -5 -5 -10 -11 -10 -5 0 -7 5 -4 10 3 6 8 10 11 10 2 0 4 -4 4 -10z
m1070 -6 c0 -2 -7 -4 -15 -4 -8 0 -15 4 -15 10 0 5 7 7 15 4 8 -4 15 -8 15
-10z m635 6 c3 -6 -1 -7 -9 -4 -18 7 -21 14 -7 14 6 0 13 -4 16 -10z m35 -25
c0 -16 -27 -28 -35 -14 -4 5 -1 8 7 7 7 -2 12 5 12 14 -1 10 2 15 7 12 5 -3 9
-11 9 -19z m-3025 -3 c-3 -3 -11 0 -18 7 -9 10 -8 11 6 5 10 -3 15 -9 12 -12z
m1205 12 c0 -8 -19 -13 -24 -6 -3 5 1 9 9 9 8 0 15 -2 15 -3z m-1466 -50 c3
-8 2 -12 -4 -9 -6 3 -10 10 -10 16 0 14 7 11 14 -7z m1572 -4 c0 -12 -4 -16
-9 -11 -5 5 -6 14 -3 20 10 15 12 14 12 -9z m1109 10 c3 -5 1 -10 -4 -10 -6 0
-11 5 -11 10 0 6 2 10 4 10 3 0 8 -4 11 -10z m-2395 -20 c0 -5 -5 -10 -11 -10
-5 0 -7 5 -4 10 3 6 8 10 11 10 2 0 4 -4 4 -10z m1235 0 c3 -5 1 -10 -4 -10
-6 0 -11 5 -11 10 0 6 2 10 4 10 3 0 8 -4 11 -10z m1430 -20 c-3 -5 -12 -10
-18 -10 -7 0 -6 4 3 10 19 12 23 12 15 0z m80 0 c3 -6 -1 -7 -9 -4 -18 7 -21
14 -7 14 6 0 13 -4 16 -10z m-1587 -25 c-3 -3 -9 2 -12 12 -6 14 -5 15 5 6 7
-7 10 -15 7 -18z m1755 10 c-3 -9 -8 -14 -10 -11 -3 3 -2 9 2 15 9 16 15 13 8
-4z m-3157 -31 c2 -14 0 -24 -3 -20 -3 3 -7 17 -9 32 -1 14 0 23 3 20 4 -3 8
-18 9 -32z m119 16 c-3 -4 0 -11 5 -13 6 -3 5 -4 -1 -3 -7 1 -13 10 -15 19 -1
9 2 15 7 11 5 -3 7 -9 4 -14z m1385 10 c0 -5 -5 -10 -11 -10 -5 0 -7 5 -4 10
3 6 8 10 11 10 2 0 4 -4 4 -10z m60 6 c0 -2 -7 -6 -15 -10 -8 -3 -15 -1 -15 4
0 6 7 10 15 10 8 0 15 -2 15 -4z m1655 -6 c3 -5 1 -10 -4 -10 -6 0 -11 5 -11
10 0 6 2 10 4 10 3 0 8 -4 11 -10z m-1691 -16 c3 -8 2 -12 -4 -9 -6 3 -10 10
-10 16 0 14 7 11 14 -7z m1350 -2 c3 -5 -1 -9 -9 -9 -8 0 -12 4 -9 9 3 4 7 8
9 8 2 0 6 -4 9 -8z m181 -10 c-3 -3 -11 0 -18 7 -9 10 -8 11 6 5 10 -3 15 -9
12 -12z m-255 4 c0 -3 -4 -8 -10 -11 -5 -3 -10 -1 -10 4 0 6 5 11 10 11 6 0
10 -2 10 -4z m-1296 -14 c3 -5 -1 -9 -9 -9 -8 0 -12 4 -9 9 3 4 7 8 9 8 2 0 6
-4 9 -8z m1676 -2 c0 -5 -2 -10 -4 -10 -3 0 -8 5 -11 10 -3 6 -1 10 4 10 6 0
11 -4 11 -10z m-360 -4 c0 -2 -7 -7 -16 -10 -8 -3 -12 -2 -9 4 6 10 25 14 25
6z m9 -32 c-14 -13 -16 -13 -16 0 0 8 4 13 9 10 4 -3 8 0 8 7 0 7 3 9 7 5 4
-3 0 -13 -8 -22z m111 16 c0 -5 -2 -10 -4 -10 -3 0 -8 5 -11 10 -3 6 -1 10 4
10 6 0 11 -4 11 -10z m185 0 c3 -6 -1 -7 -9 -4 -18 7 -21 14 -7 14 6 0 13 -4
16 -10z m128 -15 c-3 -9 -1 -15 5 -13 5 2 10 0 11 -4 1 -5 -1 -7 -3 -5 -2 1
-13 -6 -24 -16 -17 -16 -20 -16 -32 -2 -12 14 -15 14 -30 0 -15 -13 -19 -13
-36 0 -16 13 -16 14 -1 9 13 -5 16 -2 11 12 -5 18 -5 18 6 1 6 -9 16 -15 21
-11 6 4 5 12 -3 22 -7 10 1 6 16 -8 23 -20 28 -21 23 -7 -4 10 -3 16 2 13 5
-3 14 1 21 9 16 19 21 19 13 0z m-353 1 c0 -3 -4 -8 -10 -11 -5 -3 -10 -1 -10
4 0 6 5 11 10 11 6 0 10 -2 10 -4z m160 -6 c0 -5 -5 -10 -11 -10 -5 0 -7 5 -4
10 3 6 8 10 11 10 2 0 4 -4 4 -10z m-105 -12 c5 4 5 1 1 -6 -6 -10 -11 -10
-22 -1 -8 6 -14 14 -14 16 0 3 6 0 13 -6 8 -6 18 -7 22 -3z m-45 -8 c0 -5 -5
-10 -11 -10 -5 0 -7 5 -4 10 3 6 8 10 11 10 2 0 4 -4 4 -10z m110 0 c0 -5 -5
-10 -11 -10 -5 0 -7 5 -4 10 3 6 8 10 11 10 2 0 4 -4 4 -10z m-1626 -26 c3 -8
2 -12 -4 -9 -6 3 -10 10 -10 16 0 14 7 11 14 -7z m82 -16 c3 -4 -1 -5 -10 -4
-8 1 -18 5 -22 8 -3 4 1 5 10 4 8 -1 18 -5 22 -8z m42 -23 c-3 -3 -9 2 -12 12
-6 14 -5 15 5 6 7 -7 10 -15 7 -18z m-1 -30 c0 -8 -4 -12 -9 -9 -5 3 -6 10 -3
15 9 13 12 11 12 -6z m0 -40 c0 -8 -4 -12 -9 -9 -5 3 -6 10 -3 15 9 13 12 11
12 -6z m8 -64 c-8 -14 -25 -14 -25 0 0 5 5 7 10 4 6 -3 10 -1 10 6 0 7 3 10 6
6 3 -3 3 -10 -1 -16z m-85 -1 c0 -5 -5 -10 -11 -10 -5 0 -7 5 -4 10 3 6 8 10
11 10 2 0 4 -4 4 -10z m37 -15 c0 -8 -4 -12 -9 -9 -5 3 -6 10 -3 15 9 13 12
11 12 -6z m-117 -5 c0 -5 -2 -10 -4 -10 -3 0 -8 5 -11 10 -3 6 -1 10 4 10 6 0
11 -4 11 -10z m97 -35 c0 -8 -4 -12 -9 -9 -5 3 -6 10 -3 15 9 13 12 11 12 -6z
m-42 -33 c-3 -3 -11 0 -18 7 -9 10 -8 11 6 5 10 -3 15 -9 12 -12z m89 -28 c3
-8 2 -12 -4 -9 -6 3 -10 10 -10 16 0 14 7 11 14 -7z m-44 -24 c0 -5 -2 -10 -4
-10 -3 0 -8 5 -11 10 -3 6 -1 10 4 10 6 0 11 -4 11 -10z m24 -94 c-6 -15 -28
-16 -41 -1 -4 4 -3 6 2 2 6 -3 17 -2 25 4 20 12 20 11 14 -5z m-29 -35 c3 -5
2 -12 -3 -15 -5 -3 -9 1 -9 9 0 17 3 19 12 6z m-58 -96 c0 -8 -4 -12 -9 -9 -4
3 -8 9 -8 15 0 5 4 9 8 9 5 0 9 -7 9 -15z m-42 -4 c3 -5 2 -12 -3 -15 -5 -3
-9 1 -9 9 0 17 3 19 12 6z m-121 -17 c3 -8 2 -12 -4 -9 -6 3 -10 10 -10 16 0
14 7 11 14 -7z m146 -54 c0 -5 -5 -10 -11 -10 -5 0 -7 5 -4 10 3 6 8 10 11 10
2 0 4 -4 4 -10z m-220 -20 c0 -5 -2 -10 -4 -10 -3 0 -8 5 -11 10 -3 6 -1 10 4
10 6 0 11 -4 11 -10z m76 -42 c3 -4 -1 -5 -10 -4 -8 1 -18 5 -22 8 -3 4 1 5
10 4 8 -1 18 -5 22 -8z m157 -40 c-12 -13 -20 -15 -34 -7 -26 13 -24 18 6 14
21 -2 24 1 19 18 -5 17 -4 18 9 6 14 -13 14 -16 0 -31z m-232 -2 c-9 -11 -9
-15 1 -19 8 -4 7 -6 -4 -6 -21 -1 -23 10 -6 27 17 17 23 15 9 -2z"/>
<path d="M2385 3570 c-3 -5 1 -10 10 -10 9 0 13 5 10 10 -3 6 -8 10 -10 10 -2
0 -7 -4 -10 -10z"/>
<path d="M2525 2851 c-3 -5 -1 -12 5 -16 5 -3 10 1 10 9 0 18 -6 21 -15 7z"/>
<path d="M853 2585 c0 -8 4 -12 9 -9 5 3 6 10 3 15 -9 13 -12 11 -12 -6z"/>
<path d="M2270 1660 c0 -5 5 -10 11 -10 5 0 7 5 4 10 -3 6 -8 10 -11 10 -2 0
-4 -4 -4 -10z"/>
<path d="M1332 1295 c-11 -13 -23 -21 -27 -17 -5 4 -5 1 -1 -6 5 -9 15 -5 37
15 32 31 33 33 20 33 -5 0 -18 -11 -29 -25z"/>
<path d="M3956 954 c-5 -14 -4 -15 9 -4 17 14 19 20 6 20 -5 0 -12 -7 -15 -16z"/>
<path d="M2455 3740 c-3 -5 -1 -10 4 -10 6 0 11 5 11 10 0 6 -2 10 -4 10 -3 0
-8 -4 -11 -10z"/>
<path d="M2430 3600 c0 -5 5 -10 11 -10 5 0 7 5 4 10 -3 6 -8 10 -11 10 -2 0
-4 -4 -4 -10z"/>
<path d="M2447 3559 c7 -7 15 -10 18 -7 3 3 -2 9 -12 12 -14 6 -15 5 -6 -5z"/>
<path d="M2430 3521 c0 -6 4 -12 8 -15 5 -3 9 1 9 9 0 8 -4 15 -9 15 -4 0 -8
-4 -8 -9z"/>
<path d="M3630 3336 c0 -2 8 -10 18 -17 15 -13 16 -12 3 4 -13 16 -21 21 -21
13z"/>
<path d="M3664 3274 c-18 -15 -18 -15 2 -5 12 6 25 7 29 3 5 -4 5 -1 1 6 -9
15 -8 15 -32 -4z"/>
<path d="M3705 3239 c-4 -6 -4 -13 -1 -16 3 -4 6 -1 6 6 0 7 5 9 12 5 7 -4 8
-3 4 4 -9 15 -13 15 -21 1z"/>
<path d="M3715 3200 c3 -5 11 -10 16 -10 6 0 7 5 4 10 -3 6 -11 10 -16 10 -6
0 -7 -4 -4 -10z"/>
<path d="M3785 3040 c3 -5 8 -10 11 -10 2 0 4 5 4 10 0 6 -5 10 -11 10 -5 0
-7 -4 -4 -10z"/>
<path d="M3630 2919 c0 -5 5 -7 10 -4 6 3 10 8 10 11 0 2 -4 4 -10 4 -5 0 -10
-5 -10 -11z"/>
<path d="M2585 2850 c-3 -5 2 -10 12 -11 10 0 13 -3 6 -6 -7 -2 -13 -9 -13
-15 0 -7 5 -6 14 1 11 9 20 9 34 2 17 -9 20 -8 18 7 -2 9 -12 17 -22 17 -10 0
-24 3 -31 8 -6 4 -14 3 -18 -3z"/>
<path d="M2713 2843 c4 -3 1 -13 -6 -22 -11 -14 -10 -14 6 -2 20 15 22 31 5
31 -6 0 -8 -3 -5 -7z"/>
<path d="M3156 2833 c-6 -14 -5 -15 5 -6 7 7 10 15 7 18 -3 3 -9 -2 -12 -12z"/>
<path d="M2950 2831 c0 -6 4 -12 8 -15 5 -3 9 1 9 9 0 8 -4 15 -9 15 -4 0 -8
-4 -8 -9z"/>
<path d="M2416 2817 c-20 -15 -31 -47 -15 -47 5 0 9 4 9 8 0 5 7 17 15 28 15
18 15 18 8 0 -4 -13 -3 -17 4 -13 6 4 14 1 16 -5 3 -7 6 -8 6 -2 1 5 -5 18
-12 27 -11 15 -15 16 -31 4z"/>
<path d="M2735 2821 c-3 -5 0 -13 6 -17 7 -4 9 -3 5 4 -3 6 2 13 11 15 16 4
16 5 1 6 -9 0 -19 -3 -23 -8z"/>
<path d="M2815 2820 c-3 -5 -1 -10 4 -10 6 0 11 5 11 10 0 6 -2 10 -4 10 -3 0
-8 -4 -11 -10z"/>
<path d="M3015 2820 c3 -5 8 -10 11 -10 2 0 4 5 4 10 0 6 -5 10 -11 10 -5 0
-7 -4 -4 -10z"/>
<path d="M3215 2820 c-3 -5 -1 -10 4 -10 6 0 11 5 11 10 0 6 -2 10 -4 10 -3 0
-8 -4 -11 -10z"/>
<path d="M2563 2813 c-15 -5 -17 -23 -4 -23 5 0 11 7 15 15 3 8 4 15 3 14 -1
0 -8 -3 -14 -6z"/>
<path d="M2605 2800 c-3 -6 1 -7 9 -4 18 7 21 14 7 14 -6 0 -13 -4 -16 -10z"/>
<path d="M2416 2765 c-3 -8 -1 -15 4 -15 6 0 10 7 10 15 0 8 -2 15 -4 15 -2 0
-6 -7 -10 -15z"/>
<path d="M1586 2698 c3 -5 10 -6 15 -3 13 9 11 12 -6 12 -8 0 -12 -4 -9 -9z"/>
<path d="M2388 2653 c7 -3 16 -2 19 1 4 3 -2 6 -13 5 -11 0 -14 -3 -6 -6z"/>
<path d="M735 2640 c3 -5 8 -10 11 -10 2 0 4 5 4 10 0 6 -5 10 -11 10 -5 0 -7
-4 -4 -10z"/>
<path d="M1395 2641 c-3 -5 0 -13 6 -17 7 -4 9 -3 5 4 -3 5 0 13 6 15 9 4 10
6 1 6 -6 1 -14 -3 -18 -8z"/>
<path d="M2397 2623 c-10 -9 -9 -23 1 -23 5 0 9 7 9 15 0 17 -1 18 -10 8z"/>
<path d="M762 2600 c7 -10 14 -18 15 -16 6 6 -9 36 -18 36 -5 0 -4 -9 3 -20z"/>
<path d="M1213 2605 c0 -8 4 -12 9 -9 5 3 6 10 3 15 -9 13 -12 11 -12 -6z"/>
<path d="M980 2595 c-7 -8 -16 -12 -21 -9 -5 3 -9 0 -9 -6 0 -7 6 -10 14 -7 7
3 18 1 24 -5 6 -6 12 -6 17 1 3 6 3 11 -2 10 -20 -3 -27 2 -13 11 8 5 12 12 9
15 -4 3 -12 -1 -19 -10z"/>
<path d="M767 2559 c7 -7 15 -10 18 -7 3 3 -2 9 -12 12 -14 6 -15 5 -6 -5z"/>
<path d="M2426 2377 c3 -10 9 -15 12 -12 3 3 0 11 -7 18 -10 9 -11 8 -5 -6z"/>
<path d="M2459 2353 c-13 -16 -12 -17 4 -4 9 7 17 15 17 17 0 8 -8 3 -21 -13z"/>
<path d="M2310 1775 c-10 -12 -9 -16 5 -21 13 -6 14 -9 3 -16 -10 -8 -10 -9 1
-6 15 4 23 46 10 53 -3 3 -12 -2 -19 -10z"/>
<path d="M2353 1766 c-1 -12 1 -15 4 -8 3 6 9 12 14 12 6 0 7 -4 4 -10 -3 -5
-1 -10 4 -10 6 0 11 5 11 11 0 5 6 7 13 3 9 -6 8 -3 -1 8 -18 23 -48 19 -49
-6z"/>
<path d="M2416 1752 c-3 -5 1 -17 8 -27 12 -17 13 -17 11 3 -2 26 -11 37 -19
24z"/>
<path d="M2393 1725 c0 -8 4 -12 9 -9 5 3 6 10 3 15 -9 13 -12 11 -12 -6z"/>
<path d="M2469 1699 c-11 -7 -11 -9 -1 -9 7 0 10 -4 7 -10 -3 -5 -1 -10 4 -10
6 0 11 5 11 11 0 5 5 7 10 4 6 -4 8 -10 5 -15 -3 -5 -1 -11 5 -15 6 -4 7 -11
4 -17 -4 -6 -2 -8 4 -4 5 3 12 3 15 -1 2 -5 2 -3 1 4 -2 6 2 13 8 15 6 2 -5
16 -24 30 -24 18 -39 24 -49 17z m61 -39 c0 -5 -2 -10 -4 -10 -3 0 -8 5 -11
10 -3 6 -1 10 4 10 6 0 11 -4 11 -10z"/>
<path d="M2436 1687 c3 -10 9 -15 12 -12 3 3 0 11 -7 18 -10 9 -11 8 -5 -6z"/>
<path d="M2315 1619 c-4 -6 -5 -12 -2 -15 2 -3 7 2 10 11 7 17 1 20 -8 4z"/>
<path d="M2580 1620 c-12 -7 -12 -10 -1 -10 8 0 11 -6 7 -16 -6 -15 -4 -15 10
-3 10 8 12 15 5 17 -6 2 -9 8 -5 13 7 11 3 11 -16 -1z"/>
<path d="M2308 1543 c7 -3 16 -2 19 1 4 3 -2 6 -13 5 -11 0 -14 -3 -6 -6z"/>
<path d="M1574 1521 c0 -12 6 -17 18 -13 10 2 18 9 18 15 0 6 -3 7 -7 4 -3 -4
-11 -3 -17 3 -8 6 -12 3 -12 -9z"/>
<path d="M2304 1472 c0 -10 6 -19 13 -19 8 0 9 6 2 19 -5 10 -11 18 -12 18 -2
0 -3 -8 -3 -18z"/>
<path d="M2764 1468 c-4 -6 -3 -8 4 -4 6 3 13 2 17 -4 3 -5 1 -10 -4 -10 -6 0
-11 -5 -11 -11 0 -5 4 -8 9 -5 5 4 11 1 13 -5 2 -7 8 -6 16 4 10 12 8 17 -12
31 -18 11 -27 13 -32 4z"/>
<path d="M1460 1399 c0 -5 -6 -7 -12 -3 -7 4 -10 4 -6 -1 4 -4 3 -14 -4 -22
-9 -11 -7 -12 7 -7 13 5 16 4 11 -4 -4 -7 -2 -12 4 -12 7 0 9 8 5 21 -5 14 -4
19 4 15 7 -5 9 -1 5 8 -7 18 -14 21 -14 5z"/>
<path d="M3835 1340 c3 -5 8 -10 11 -10 2 0 4 5 4 10 0 6 -5 10 -11 10 -5 0
-7 -4 -4 -10z"/>
<path d="M2316 1313 c-6 -14 -5 -15 5 -6 7 7 10 15 7 18 -3 3 -9 -2 -12 -12z"/>
<path d="M2276 1312 c-3 -5 1 -9 9 -9 8 0 12 4 9 9 -3 4 -7 8 -9 8 -2 0 -6 -4
-9 -8z"/>
<path d="M3030 1304 c0 -5 15 -19 33 -31 17 -13 26 -23 19 -23 -6 0 -12 -8
-12 -17 0 -15 2 -14 16 3 15 19 16 19 9 0 -6 -19 -5 -19 15 -1 24 21 26 29 5
21 -8 -3 -19 2 -24 12 -6 9 -11 13 -11 8 0 -5 -11 1 -25 14 -14 13 -25 19 -25
14z"/>
<path d="M3908 1303 c7 -3 16 -2 19 1 4 3 -2 6 -13 5 -11 0 -14 -3 -6 -6z"/>
<path d="M2310 1279 c0 -5 5 -7 10 -4 6 3 10 8 10 11 0 2 -4 4 -10 4 -5 0 -10
-5 -10 -11z"/>
<path d="M2950 1279 c0 -5 5 -7 10 -4 6 3 10 8 10 11 0 2 -4 4 -10 4 -5 0 -10
-5 -10 -11z"/>
<path d="M1355 1260 c-3 -6 1 -7 9 -4 18 7 21 14 7 14 -6 0 -13 -4 -16 -10z"/>
<path d="M2997 1255 c-4 -8 -3 -16 1 -19 4 -3 9 4 9 15 2 23 -3 25 -10 4z"/>
<path d="M3975 1260 c-3 -6 -11 -7 -17 -4 -6 4 -6 -2 1 -15 7 -11 17 -21 23
-21 7 0 7 -4 -1 -13 -8 -10 -7 -17 1 -25 14 -14 38 -16 38 -2 0 5 -8 6 -17 3
-16 -6 -16 -5 -4 10 7 9 10 17 5 17 -5 0 -2 5 6 11 13 9 13 10 -1 6 -21 -7
-43 8 -34 23 6 9 9 9 16 -1 4 -7 11 -11 14 -8 3 4 -1 12 -9 18 -10 8 -16 9
-21 1z"/>
<path d="M1147 1153 c-11 -10 -8 -20 6 -20 8 0 14 6 14 14 0 14 -10 17 -20 6z"/>
<path d="M2335 1101 c-3 -5 -2 -12 3 -15 5 -3 9 1 9 9 0 17 -3 19 -12 6z"/>
<path d="M3240 1100 c-12 -7 -10 -9 7 -7 12 0 19 5 17 9 -6 10 -6 10 -24 -2z"/>
<path d="M573 1085 c0 -5 10 -10 22 -10 12 0 22 5 22 10 0 6 -10 10 -22 10
-12 0 -22 -4 -22 -10z"/>
<path d="M3395 1070 c-3 -5 -3 -10 1 -10 4 0 1 -6 -7 -12 -8 -7 -12 -12 -10
-11 2 2 9 -4 16 -13 10 -15 13 -15 27 -1 22 23 31 8 11 -17 -18 -21 -18 -21 4
-2 18 15 20 22 12 33 -7 7 -14 11 -17 8 -8 -8 -32 16 -26 26 3 5 3 9 0 9 -3 0
-8 -4 -11 -10z m20 -29 c3 -5 1 -12 -5 -16 -5 -3 -10 1 -10 9 0 18 6 21 15 7z"/>
<path d="M1050 1060 c0 -6 -7 -10 -16 -8 -22 4 -29 -18 -9 -26 10 -4 14 -2 9
5 -4 7 1 9 17 5 13 -3 18 -3 11 0 -18 8 -4 24 16 18 14 -5 15 -4 2 5 -19 14
-30 14 -30 1z"/>
<path d="M630 1040 c0 -5 5 -10 10 -10 6 0 10 5 10 10 0 6 -4 10 -10 10 -5 0
-10 -4 -10 -10z"/>
<path d="M4023 1024 c4 -4 2 -13 -3 -19 -7 -9 -5 -17 7 -26 11 -9 14 -10 9 -1
-4 6 -2 12 3 12 18 0 12 27 -6 34 -10 4 -14 4 -10 0z"/>
<path d="M590 1001 c0 -6 4 -12 8 -15 5 -3 9 1 9 9 0 8 -4 15 -9 15 -4 0 -8
-4 -8 -9z"/>
<path d="M787 993 c3 -7 9 -10 14 -7 5 3 9 0 9 -7 0 -7 2 -10 5 -7 9 9 -5 35
-19 35 -8 0 -12 -6 -9 -14z"/>
<path d="M826 998 c3 -5 10 -6 15 -3 13 9 11 12 -6 12 -8 0 -12 -4 -9 -9z"/>
<path d="M856 995 c-3 -8 -1 -15 4 -15 6 0 10 7 10 15 0 8 -2 15 -4 15 -2 0
-6 -7 -10 -15z"/>
<path d="M2315 1000 c-4 -6 -14 -9 -22 -6 -8 3 -11 2 -8 -3 3 -5 0 -13 -6 -17
-9 -5 -8 -10 3 -18 8 -6 14 -22 14 -36 -1 -14 3 -26 8 -27 5 -1 13 -7 17 -15
5 -8 9 -9 9 -2 0 6 -7 17 -15 24 -8 7 -15 17 -15 22 0 6 7 5 15 -2 10 -9 15
-9 15 -1 0 6 -4 11 -9 11 -12 0 -9 53 4 62 5 4 7 10 3 13 -3 4 -9 1 -13 -5z
m-6 -43 c0 -9 -2 -8 -6 1 -2 6 -10 9 -15 6 -7 -4 -8 -2 -4 5 9 13 26 5 25 -12z"/>
<path d="M710 978 c0 -4 4 -8 9 -8 6 0 12 4 15 8 3 5 -1 9 -9 9 -8 0 -15 -4
-15 -9z"/>
<path d="M895 980 c-3 -5 -1 -10 4 -10 6 0 11 5 11 10 0 6 -2 10 -4 10 -3 0
-8 -4 -11 -10z"/>
<path d="M3814 928 c-4 -5 -12 -7 -20 -4 -38 15 -15 -28 26 -48 8 -4 4 1 -10
12 l-24 20 27 -1 c15 -1 27 -6 27 -12 0 -5 4 -4 9 4 5 8 7 19 5 26 -6 14 -32
16 -40 3z m16 -8 c0 -5 -5 -10 -11 -10 -5 0 -7 5 -4 10 3 6 8 10 11 10 2 0 4
-4 4 -10z"/>
<path d="M3620 918 c0 -4 7 -8 15 -8 8 0 15 4 15 8 0 5 -7 9 -15 9 -8 0 -15
-4 -15 -9z"/>
<path d="M3706 882 c-3 -5 1 -9 9 -9 8 0 15 4 15 9 0 4 -4 8 -9 8 -6 0 -12 -4
-15 -8z"/>
<path d="M3716 847 c3 -10 9 -15 12 -12 3 3 0 11 -7 18 -10 9 -11 8 -5 -6z"/>
<path d="M2266 742 c-2 -4 -1 -14 5 -22 6 -11 9 -11 9 -2 0 10 5 10 20 2 28
-15 25 -6 -4 14 -14 9 -27 12 -30 8z"/>
<path d="M2308 743 c7 -3 16 -2 19 1 4 3 -2 6 -13 5 -11 0 -14 -3 -6 -6z"/>
<path d="M2277 692 c-13 -14 -14 -21 -5 -30 8 -8 8 -15 -1 -26 -7 -9 -8 -16
-2 -20 13 -8 18 3 17 39 -1 17 3 33 8 37 6 4 8 9 5 13 -3 3 -13 -3 -22 -13z"/>
<path d="M2221 494 c-23 -30 -24 -33 -12 -52 7 -11 9 -11 14 2 4 9 4 23 0 32
-5 14 -3 15 15 5 14 -7 23 -8 27 -1 4 6 3 10 -2 9 -4 -1 -15 -1 -23 0 -13 1
-13 2 0 11 8 5 12 12 8 15 -3 3 -15 -6 -27 -21z"/>
<path d="M2230 431 c0 -6 4 -12 8 -15 5 -3 9 1 9 9 0 8 -4 15 -9 15 -4 0 -8
-4 -8 -9z"/>
<path d="M2196 412 c-2 -4 3 -16 11 -27 12 -15 14 -16 10 -3 -3 9 -1 18 6 21
6 2 4 6 -6 10 -9 3 -18 3 -21 -1z"/>
<path d="M2230 366 c0 -2 7 -7 16 -10 8 -3 12 -2 9 4 -6 10 -25 14 -25 6z"/>
<path d="M2190 299 c0 -5 5 -7 10 -4 6 3 10 8 10 11 0 2 -4 4 -10 4 -5 0 -10
-5 -10 -11z"/>
<path d="M1770 262 c0 -4 10 -9 22 -9 18 -2 20 0 8 7 -18 12 -30 13 -30 2z"/>
<path d="M1829 213 c-1 -5 -1 -11 0 -15 0 -5 -3 -8 -8 -8 -11 0 -8 -26 4 -37
4 -4 5 -3 2 3 -4 7 0 15 9 18 12 5 14 10 5 20 -6 7 -8 16 -4 19 3 4 3 7 0 7
-4 0 -8 -3 -8 -7z"/>
<path d="M1917 163 c3 -7 6 -13 8 -13 2 0 5 6 8 13 3 8 -1 14 -8 14 -7 0 -11
-6 -8 -14z"/>
<path d="M2040 120 c-8 -5 -10 -10 -5 -10 6 0 17 5 25 10 8 5 11 10 5 10 -5 0
-17 -5 -25 -10z"/>
</g>
</svg>
